<svg height="994" preserveAspectRatio="xMidYMid meet" viewBox="0 0 11360 9940" width="1136" xmlns="http://www.w3.org/2000/svg"><g fill="#010101"><path d="m3681 8498c-75-37-110-120-92-222 35-198 212-344 338-279 29 15 42 18 55 9 25-16 27-7 14 58-14 71-31 82-40 26-14-87-99-120-166-64-88 74-158 338-113 423 44 85 165 56 234-55 32-53 41-28 18 49-21 67-32 80-43 52-4-12-11-12-48 5-56 26-103 25-157-2z"/><path d="m4067 8499c-31-23-51-86-41-126 27-113 146-210 213-174 12 7 21 16 21 21 0 6 5 10 10 10 6 0 10-7 10-15 0-10 10-15 31-15s30 4 27 13c-24 64-69 259-64 273 6 15 9 15 32-7 14-13 33-37 41-52 8-16 17-27 19-24 9 9-35 85-58 101-31 22-64 20-81-5l-15-20-33 20c-43 26-79 27-112 0zm92-4c34-17 64-74 86-163 19-71 14-106-14-122-48-25-96 25-131 139-25 80-25 116 0 141 24 24 24 24 59 5z"/><path d="m4450 8508c-13-7-31-25-39-39-14-25-11-42 39-235 29-115 55-215 58-221 2-8-5-13-22-13-14 0-26-4-26-10 0-5 25-10 55-10s55 3 55 8c0 4-14 54-30 112-17 58-30 108-30 112 0 3 14-1 31-9 24-12 41-14 67-7 106 27 101 198-8 285-42 34-112 46-150 27zm118-48c26-39 62-149 62-191 0-38-34-72-63-63-12 3-32 16-45 27-26 24-63 141-66 206-1 38 3 47 23 57 32 16 61 5 89-36z"/><path d="m4777 8499c-31-23-51-86-41-126 27-113 146-210 213-174 12 7 21 16 21 21 0 6 5 10 10 10 6 0 10-7 10-15 0-10 10-15 31-15s30 4 27 13c-24 64-69 259-64 273 6 15 9 15 32-7 14-13 33-37 41-52 8-16 17-27 19-24 9 9-35 85-58 101-31 22-64 20-81-5l-15-20-33 20c-43 26-79 27-112 0zm92-4c34-17 64-74 86-163 19-71 14-106-14-122-48-25-96 25-131 139-25 80-25 116 0 141 24 24 24 24 59 5z"/><path d="m5320 8505c-14-17-9-52 27-179 23-82 24-89 9-105-15-15-19-14-54 4-46 25-85 97-109 206-17 76-19 79-46 79-22 0-27-4-23-17 9-30 66-261 66-267 0-3-13-6-30-6-16 0-30-4-30-10 0-5 20-10 44-10s52-3 61-7c15-5 16-1 10 27l-7 34 32-27c56-47 121-48 142-2 9 20 5 46-20 142-23 85-28 119-20 124 19 12 47-9 65-47 9-19 20-34 25-34 14 0-30 78-54 94-28 20-72 21-88 1z"/><path d="m5527 8499c-31-23-51-86-41-126 27-113 146-210 213-174 12 7 21 16 21 21 0 6 5 10 10 10 6 0 10-7 10-15 0-10 10-15 31-15s30 4 27 13c-24 64-69 259-64 273 6 15 9 15 32-7 14-13 33-37 41-52 8-16 17-27 19-24 9 9-35 85-58 101-31 22-64 20-81-5l-15-20-33 20c-43 26-79 27-112 0zm92-4c34-17 64-74 86-163 19-71 14-106-14-122-48-25-96 25-131 139-25 80-25 116 0 141 24 24 24 24 59 5z"/><path d="m6181 8498c-75-37-110-120-92-222 35-198 212-344 338-279 29 15 42 18 55 9 25-16 27-7 14 58-14 71-31 82-40 26-14-87-99-120-166-64-88 74-158 338-113 423 44 85 165 56 234-55 32-53 41-28 18 49-21 67-32 80-43 52-4-12-11-12-48 5-56 26-103 25-157-2z"/><path d="m6532 8508c-7-7-12-21-12-31 0-15 93-382 116-459 4-15-1-18-25-18-17 0-31-4-31-10s27-10 60-10 60 2 60 4-29 113-65 247-65 247-65 252c0 4 8 7 18 7 21 0 52-31 75-75 12-22 16-25 17-11 1 66-108 144-148 104z"/><path d="m6760 8502-24-19 27-119c15-66 27-125 27-131 0-7-11-13-25-13s-25-4-25-10c0-5 17-10 38-10 20 0 47-3 58-6 22-6 21-4-12 137-30 125-33 145-20 157 12 13 20 13 46 2 46-19 76-72 106-188 25-93 29-102 51-102 12 0 23 5 23 11 0 5-13 64-30 129-36 144-37 152-8 148 20-3 59-48 71-81 2-7 7-10 10-6 14 12-37 91-69 107-41 19-84 5-84-28 0-20-1-20-34 5-47 36-95 42-126 17z"/><path d="m7160 8508c-13-7-31-25-39-39-14-25-11-42 39-235 29-115 55-215 58-221 2-8-5-13-22-13-14 0-26-4-26-10 0-5 25-10 55-10s55 3 55 8c0 4-14 54-30 112-17 58-30 108-30 112 0 3 14-1 31-9 24-12 41-14 67-7 106 27 101 198-8 285-42 34-112 46-150 27zm118-48c26-39 62-149 62-191 0-38-34-72-63-63-12 3-32 16-45 27-26 24-63 141-66 206-1 38 3 47 23 57 32 16 61 5 89-36z"/><path d="m4525 7421c-48-22-79-54-100-103-12-31-15-85-15-298 0-279 4-305 53-359 75-81 249-81 324 0 49 54 53 80 53 361 0 234-2 267-19 303-22 48-54 79-103 100-51 21-143 19-193-4zm163-142c9-18 12-87 10-271-3-277-4-280-73-280s-70 3-73 280c-2 184 1 253 10 272 24 45 102 45 126-1z"/><path d="m5215 7421c-48-22-79-54-100-103-12-31-15-85-15-298 0-279 4-305 53-359 75-81 249-81 324 0 49 54 53 80 53 361 0 234-2 267-19 303-22 48-54 79-103 100-51 21-143 19-193-4zm163-142c9-18 12-87 10-271-3-277-4-280-73-280s-70 3-73 280c-2 184 1 253 10 272 24 45 102 45 126-1z"/><path d="m9220 7424c-67-29-113-92-126-172l-6-40 48-7c87-12 87-12 94 20 15 69 49 98 103 88 15-3 34-15 42-26 38-54 6-115-123-234-138-128-171-203-138-316 26-91 97-137 209-137 62 0 105 19 143 62 29 33 63 122 51 134-3 4-35 9-71 11-61 5-66 4-66-15 0-59-84-89-122-43-42 52-7 125 103 216 90 75 135 134 155 202 42 146-54 274-205 273-31-1-72-8-91-16z"/><path d="m1570 7020v-410h70 70l1 148v147l72-147 72-147h73c39-1 72 1 72 4s-34 72-75 154l-74 149 84 253c47 140 85 255 85 256 0 2-33 3-73 3h-73l-54-185c-30-102-57-185-60-185s-15 19-28 43c-20 38-22 56-22 185v142h-70-70z"/><path d="m2210 7020v-410h190 190v60 60h-120-120v110 110h90 90v60 60h-90-90v120 120h125 125v60 60h-195-195z"/><path d="m2840 7020v-411l67 3 67 3 81 223 80 222 3-225 2-225h65 65v410 410h-62-63l-85-246-85-245-3 245-2 246h-65-65z"/><path d="m3610 7421c0-6-34-187-75-404s-75-398-75-401c0-4 30-6 67-4l67 3 42 245c22 135 44 238 47 230s20-96 37-195 35-204 41-232l10-53h59 59l10 53c6 28 26 139 46 246 19 107 36 196 38 197 2 2 20-107 40-243 21-136 39-248 41-250s33-3 68-1l64 3-71 405-71 405-61 3-61 3-11-53c-6-29-27-141-47-248-35-190-40-208-48-199-2 2-23 115-47 252l-43 247h-63c-35 0-63-4-63-9z"/><path d="m5790 7020v-410h128c154 0 196 10 243 60 52 54 59 96 59 350s-7 296-59 350c-47 50-89 60-243 60h-128zm261 271 24-19v-252-252l-24-19c-16-13-39-19-72-19h-49v290 290h49c33 0 56-6 72-19z"/><path d="m6860 7020v-410h70 70v170 170h75 75v-170-170h70 70v410 410h-70-70v-180-180h-75-75v180 180h-70-70z"/><path d="m7570 7020v-410h70 70v410 410h-70-70z"/><path d="m7980 7020v-410h70 70v350 350h110 110v60 60h-180-180z"/><path d="m8550 7020v-410h70 70v350 350h110 110v60 60h-180-180z"/><path d="m3080 3575v-2165h370 370v802c0 441 3 798 8 794 4-4 180-364 392-799l386-792 372-3c205-1 372 1 371 5 0 5-179 368-398 808l-397 800 452 1358 452 1357-380-2-380-3-302-1002c-165-552-304-1003-307-1003-4 0-65 108-138 240l-131 240v765 765h-370-370z"/><path d="m5770 3575v-2165h370 370v880 880h395 395v-880-880h370 370v2165 2165h-370-370v-960-960h-395-395v960 960h-370-370z"/><path d="m1550 4640v-30h435 435v30 30h-435-435z"/><path d="m8690 4640v-30h435 435v30 30h-435-435z"/><path d="m1890 4214c-152-40-300-160-373-301-70-135-95-300-63-421 47-174 184-358 329-440 145-83 317-83 464-1l52 29 28-35c22-27 35-35 61-35h32v170 170h-25c-21 0-30-11-59-68-54-108-106-166-180-202-61-30-70-32-156-29-91 4-92 4-125 41-19 20-41 59-49 89-26 86-39 314-33 559 8 303 25 367 107 412 29 16 51 19 130 16 82-3 102-8 149-33 72-40 121-99 167-200 35-77 41-85 66-85h28v180 180h-34c-26 0-41-8-64-34l-29-34-69 34c-38 18-91 38-117 44-66 14-171 11-237-6z"/><path d="m9030 4214c-152-40-300-160-373-301-70-135-95-300-63-421 47-174 184-358 329-440 145-83 317-83 464-1l52 29 28-35c22-27 35-35 61-35h32v170 170h-25c-21 0-30-11-59-68-54-108-106-166-180-202-61-30-70-32-156-29-91 4-92 4-125 41-19 20-41 59-49 89-26 86-39 314-33 559 8 303 25 367 107 412 29 16 51 19 130 16 82-3 102-8 149-33 72-40 121-99 167-200 35-77 41-85 66-85h28v180 180h-34c-26 0-41-8-64-34l-29-34-69 34c-38 18-91 38-117 44-66 14-171 11-237-6z"/><path d="m1550 2630v-30h435 435v30 30h-435-435z"/><path d="m8690 2630v-30h435 435v30 30h-435-435z"/></g><g fill="#fff"><path d="m0 4970v-4970h5680 5680v4970 4970h-5680-5680zm3838 3530c37-17 44-17 48-5 11 28 22 15 43-52 23-77 14-102-18-49-69 111-190 140-234 55-45-85 25-349 113-423 67-56 152-23 166 64 9 56 26 45 40-26 13-65 11-74-14-58-13 9-26 6-55-9-43-22-105-19-158 9-49 25-113 95-142 155-72 147-50 286 54 337 54 27 101 28 157 2zm341-1 33-20 15 20c17 25 50 27 81 5 23-16 67-92 58-101-2-3-11 8-19 24-8 15-27 39-41 52-23 22-26 22-32 7-5-14 40-209 64-273 3-9-6-13-27-13s-31 5-31 15c0 8-4 15-10 15-5 0-10-4-10-10 0-5-9-14-21-21-67-36-186 61-213 174-10 40 10 103 41 126 33 27 69 26 112 0zm421-18c109-87 114-258 8-285-26-7-43-5-67 7-17 8-31 12-31 9 0-4 13-54 30-112 16-58 30-108 30-112 0-5-25-8-55-8s-55 5-55 10c0 6 12 10 26 10 17 0 24 5 22 13-3 6-29 106-58 221-50 193-53 210-39 235 33 59 123 65 189 12zm289 18 33-20 15 20c17 25 50 27 81 5 23-16 67-92 58-101-2-3-11 8-19 24-8 15-27 39-41 52-23 22-26 22-32 7-5-14 40-209 64-273 3-9-6-13-27-13s-31 5-31 15c0 8-4 15-10 15-5 0-10-4-10-10 0-5-9-14-21-21-67-36-186 61-213 174-10 40 10 103 41 126 33 27 69 26 112 0zm519 5c24-16 68-94 54-94-5 0-16 15-25 34-18 38-46 59-65 47-8-5-3-39 20-124 25-96 29-122 20-142-21-46-86-45-142 2l-32 27 7-34c6-28 5-32-10-27-9 4-37 7-61 7s-44 5-44 10c0 6 14 10 30 10 17 0 30 3 30 6 0 6-57 237-66 267-4 13 1 17 23 17 27 0 29-3 46-79 24-109 63-181 109-206 35-18 39-19 54-4 15 16 14 23-9 105-36 127-41 162-27 179 16 20 60 19 88-1zm231-5 33-20 15 20c17 25 50 27 81 5 23-16 67-92 58-101-2-3-11 8-19 24-8 15-27 39-41 52-23 22-26 22-32 7-5-14 40-209 64-273 3-9-6-13-27-13s-31 5-31 15c0 8-4 15-10 15-5 0-10-4-10-10 0-5-9-14-21-21-67-36-186 61-213 174-10 40 10 103 41 126 33 27 69 26 112 0zm699 1c37-17 44-17 48-5 11 28 22 15 43-52 23-77 14-102-18-49-69 111-190 140-234 55-45-85 25-349 113-423 67-56 152-23 166 64 9 56 26 45 40-26 13-65 11-74-14-58-13 9-26 6-55-9-43-22-105-19-158 9-49 25-113 95-142 155-72 147-50 286 54 337 54 27 101 28 157 2zm272 5c31-16 70-72 70-101-1-14-5-11-17 11-23 44-54 75-75 75-10 0-18-3-18-7 0-5 29-118 65-252s65-245 65-247-27-4-60-4-60 4-60 10 14 10 31 10c24 0 29 3 25 18-23 77-116 444-116 459 0 42 39 54 90 28zm276-20c33-25 34-25 34-5 0 33 43 47 84 28 32-16 83-95 69-107-3-4-8-1-10 6-12 33-51 78-71 81-29 4-28-4 8-148 17-65 30-124 30-129 0-6-11-11-23-11-22 0-26 9-51 102-30 116-60 169-106 188-26 11-34 11-46-2-13-12-10-32 20-157 33-141 34-143 12-137-11 3-38 6-58 6-21 0-38 5-38 10 0 6 11 10 25 10s25 6 25 13c0 6-12 65-27 131l-27 119 24 19c31 25 79 19 126-17zm424-4c109-87 114-258 8-285-26-7-43-5-67 7-17 8-31 12-31 9 0-4 13-54 30-112 16-58 30-108 30-112 0-5-25-8-55-8s-55 5-55 10c0 6 12 10 26 10 17 0 24 5 22 13-3 6-29 106-58 221-50 193-53 210-39 235 33 59 123 65 189 12zm-2592-1056c49-21 81-52 103-100 17-36 19-69 19-303 0-281-4-307-53-361-75-81-249-81-324 0-49 54-53 80-53 359s4 305 53 359c53 57 175 79 255 46zm690 0c49-21 81-52 103-100 17-36 19-69 19-303 0-281-4-307-53-361-75-81-249-81-324 0-49 54-53 80-53 359s4 305 53 359c53 57 175 79 255 46zm4010-11c121-60 144-220 49-345-19-24-67-71-106-104-110-91-145-164-103-216 38-46 122-16 122 43 0 19 5 20 66 15 36-2 68-7 71-11 12-12-22-101-51-134-38-43-81-62-143-62-112 0-183 46-209 137-33 113 0 188 138 316 129 119 161 180 123 234-8 11-27 23-42 26-54 10-88-19-103-88-7-32-7-32-94-20l-48 7 6 40c8 49 36 106 68 135 62 59 170 70 256 27zm-7708-126c0-129 2-147 22-185 13-24 25-43 28-43s30 83 60 185l54 185h73c40 0 73-1 73-3 0-1-38-116-85-256l-84-253 74-149c41-82 75-151 75-154s-33-5-72-4h-73l-72 147-72 147v-147l-1-148h-70-70v410 410h70 70zm890 82v-60h-125-125v-120-120h90 90v-60-60h-90-90v-110-110h120 120v-60-60h-190-190v410 410h195 195zm372-186 3-245 85 245 85 246h63 62v-410-410h-65-65l-2 225-3 225-80-222-81-223-67-3-67-3v411 410h65 65zm807-1c24-137 45-250 47-252 8-9 13 9 48 199 20 107 41 219 47 248l11 53 61-3 61-3 71-405 71-405-64-3c-35-2-66-1-68 1s-20 114-41 250c-20 136-38 245-40 243-2-1-19-90-38-197-20-107-40-218-46-246l-10-53h-59-59l-10 53c-6 28-24 133-41 232s-34 187-37 195-25-95-47-230l-42-245-67-3c-37-2-67 0-67 4 0 3 34 184 75 401s75 398 75 404c0 5 28 9 63 9h63zm2306 236c54-15 109-74 124-132 15-61 15-473 0-534-15-58-70-117-124-132-22-6-97-11-167-11h-128v410 410h128c70 0 145-5 167-11zm915-169v-180h75 75v180 180h70 70v-410-410h-70-70v170 170h-75-75v-170-170h-70-70v410 410h70 70zm710-230v-410h-70-70v410 410h70 70zm630 350v-60h-110-110v-350-350h-70-70v410 410h180 180zm570 0v-60h-110-110v-350-350h-70-70v410 410h180 180zm-5090-2395v-765l131-240c73-132 134-240 138-240 3 0 142 451 307 1003l302 1002 380 3 380 2-452-1357-452-1358 397-800c219-440 398-803 398-808 1-4-166-6-371-5l-372 3-386 792c-212 435-388 795-392 799-5 4-8-353-8-794v-802h-370-370v2165 2165h370 370zm2690-195v-960h395 395v960 960h370 370v-2165-2165h-370-370v880 880h-395-395v-880-880h-370-370v2165 2165h370 370zm-4090-140v-30h-435-435v30 30h435 435zm7140 0v-30h-435-435v30 30h435 435zm-7433-420c26-6 79-26 117-44l69-34 29 34c23 26 38 34 64 34h34v-180-180h-28c-25 0-31 8-66 85-46 101-95 160-167 200-47 25-67 30-149 33-79 3-101 0-130-16-82-45-99-109-107-412-6-245 7-473 33-559 8-30 30-69 49-89 33-37 34-37 125-41 86-3 95-1 156 29 74 36 126 94 180 202 29 57 38 68 59 68h25v-170-170h-32c-26 0-39 8-61 35l-28 35-52-29c-230-129-497-52-672 194-88 123-135 251-135 371 0 272 194 531 450 598 66 17 171 20 237 6zm7140 0c26-6 79-26 117-44l69-34 29 34c23 26 38 34 64 34h34v-180-180h-28c-25 0-31 8-66 85-46 101-95 160-167 200-47 25-67 30-149 33-79 3-101 0-130-16-82-45-99-109-107-412-6-245 7-473 33-559 8-30 30-69 49-89 33-37 34-37 125-41 86-3 95-1 156 29 74 36 126 94 180 202 29 57 38 68 59 68h25v-170-170h-32c-26 0-39 8-61 35l-28 35-52-29c-230-129-497-52-672 194-88 123-135 251-135 371 0 272 194 531 450 598 66 17 171 20 237 6zm-6847-1590v-30h-435-435v30 30h435 435zm7140 0v-30h-435-435v30 30h435 435z"/><path d="m4100 8490c-25-25-25-61 0-141 35-114 83-164 131-139 28 16 33 51 14 122-22 89-52 146-86 163-35 19-35 19-59-5z"/><path d="m4479 8496c-20-10-24-19-23-57 3-65 40-182 66-206 36-33 64-37 87-14 26 26 26 61 1 143-35 113-81 160-131 134z"/><path d="m4810 8490c-25-25-25-61 0-141 35-114 83-164 131-139 28 16 33 51 14 122-22 89-52 146-86 163-35 19-35 19-59-5z"/><path d="m5560 8490c-25-25-25-61 0-141 35-114 83-164 131-139 28 16 33 51 14 122-22 89-52 146-86 163-35 19-35 19-59-5z"/><path d="m7189 8496c-20-10-24-19-23-57 3-65 40-182 66-206 36-33 64-37 87-14 26 26 26 61 1 143-35 113-81 160-131 134z"/><path d="m4600 7310c-47-11-50-35-48-302 3-277 4-280 73-280s70 3 73 280c2 267-1 290-48 302-14 4-36 4-50 0z"/><path d="m5290 7310c-47-11-50-35-48-302 3-277 4-280 73-280s70 3 73 280c2 267-1 290-48 302-14 4-36 4-50 0z"/><path d="m5930 7020v-290h49c33 0 56 6 72 19l24 19v252 252l-24 19c-16 13-39 19-72 19h-49z"/></g></svg>